<svg width="847" height="824" viewBox="0 0 847 824" fill="none" xmlns="http://www.w3.org/2000/svg">
<path d="M557.017 154.174C603.744 187.829 649.341 290.383 616.165 409.101C582.989 527.818 438.438 455.159 362.665 411.291C286.891 367.424 250.77 306.913 309.411 246.073C368.051 185.234 510.289 120.518 557.017 154.174Z" fill="#B7E3A8"/>
<path d="M566.014 139.779C591.47 158.113 616.681 195.273 630.99 244.108C645.295 292.93 648.691 353.379 630.562 418.251C621.516 450.622 604.902 469.883 583.821 479.876C562.719 489.88 537.065 490.633 509.888 485.822C455.527 476.198 395.31 444.357 353.843 420.351C312.415 396.366 281.914 367.879 269.747 337.151C263.669 321.799 262.165 305.883 266.161 289.67C270.159 273.451 279.668 256.902 295.667 240.303C327.696 207.073 382.594 172.753 435.883 151.345C462.524 140.642 488.738 133.177 511.467 130.683C534.215 128.186 553.38 130.679 566.014 139.779Z" stroke="#70C851"/>
<path d="M596.524 79.0361C631.27 104.062 665.66 154.763 685.176 221.368C704.688 287.959 709.318 370.406 684.593 458.884C672.248 503.056 649.568 529.363 620.772 543.014C591.955 556.676 556.938 557.698 519.867 551.135C445.72 538.009 363.599 494.583 307.066 461.854C250.572 429.148 208.946 390.283 192.337 348.335C184.037 327.372 181.982 305.636 187.441 283.491C192.9 261.342 205.884 238.753 227.713 216.105C271.401 170.779 346.27 123.976 418.937 94.7832C455.267 80.1878 491.022 70.0043 522.032 66.6015C553.06 63.1966 579.244 66.5904 596.524 79.0361Z" stroke="#70C851" stroke-opacity="0.4"/>
<path d="M646.984 -6.21594C695.645 28.8315 743.78 99.8127 771.094 193.03C798.403 286.233 804.883 401.625 770.278 525.453C752.995 587.301 721.229 624.161 680.879 643.289C640.508 662.428 591.467 663.853 539.581 654.668C435.801 636.295 320.877 575.52 241.78 529.728C162.722 483.959 104.437 429.554 81.1748 370.802C69.548 341.437 66.668 310.983 74.3155 279.956C81.9641 248.925 100.152 217.29 130.711 185.584C191.861 122.141 296.638 56.6452 398.326 15.7929C449.167 -4.63195 499.211 -18.8863 542.622 -23.6499C586.05 -28.4156 622.747 -23.6725 646.984 -6.21594Z" stroke="#70C851" stroke-opacity="0.25"/>
</svg>
